<svg width="178" height="178" viewBox="0 0 178 178" fill="none" xmlns="http://www.w3.org/2000/svg">
<rect width="178" height="178" fill="#00AB37"/>
<path d="M48.9773 153.133V161.91H47.9545L43.1989 155.019H43.1136V161.91H42.0568V153.133H43.0795L47.8523 160.041H47.9375V153.133H48.9773ZM55.0806 159.218V155.328H56.0863V161.91H55.0806V160.795H55.0124C54.859 161.129 54.6204 161.414 54.2965 161.648C53.9727 161.879 53.5636 161.995 53.0692 161.995C52.6602 161.995 52.2965 161.906 51.9783 161.726C51.6602 161.543 51.4102 161.268 51.2283 160.903C51.0465 160.534 50.9556 160.069 50.9556 159.51V155.328H51.9613V159.441C51.9613 159.921 52.0948 160.304 52.3619 160.59C52.6317 160.876 52.9755 161.019 53.3931 161.019C53.6431 161.019 53.8974 160.954 54.1559 160.826C54.4173 160.697 54.636 160.5 54.8121 160.234C54.9911 159.969 55.0806 159.63 55.0806 159.218ZM53.0692 154.436L54.109 152.447H55.2852L53.9556 154.436H53.0692ZM57.9283 161.91V155.328H58.8999V156.355H58.9851C59.1214 156.004 59.3416 155.732 59.6456 155.537C59.9496 155.34 60.3146 155.241 60.7408 155.241C61.1726 155.241 61.532 155.34 61.8189 155.537C62.1087 155.732 62.3345 156.004 62.4964 156.355H62.5646C62.7322 156.015 62.9837 155.746 63.3189 155.546C63.6541 155.343 64.0561 155.241 64.5249 155.241C65.1101 155.241 65.5888 155.426 65.9609 155.794C66.3331 156.16 66.5192 156.73 66.5192 157.504V161.91H65.5135V157.504C65.5135 157.018 65.3814 156.671 65.1172 156.463C64.853 156.254 64.5419 156.15 64.1839 156.15C63.7237 156.15 63.3672 156.29 63.1143 156.57C62.8615 156.847 62.7351 157.198 62.7351 157.625V161.91H61.7124V157.401C61.7124 157.027 61.5916 156.725 61.3501 156.497C61.1087 156.266 60.7976 156.15 60.4169 156.15C60.1555 156.15 59.9112 156.22 59.6839 156.36C59.4595 156.5 59.2777 156.694 59.1385 156.943C59.0021 157.188 58.9339 157.473 58.9339 157.795V161.91H57.9283ZM71.1023 162.046C70.4716 162.046 69.9276 161.907 69.4702 161.627C69.0156 161.344 68.6648 160.949 68.4176 160.444C68.1733 159.936 68.0511 159.344 68.0511 158.669C68.0511 157.996 68.1733 157.401 68.4176 156.887C68.6648 156.369 69.0085 155.967 69.4489 155.679C69.892 155.387 70.4091 155.241 71 155.241C71.3409 155.241 71.6776 155.298 72.0099 155.413C72.3423 155.527 72.6449 155.713 72.9176 155.97C73.1903 156.225 73.4077 156.562 73.5696 156.981C73.7315 157.401 73.8125 157.918 73.8125 158.533V158.961H68.767V158.087H72.7898C72.7898 157.716 72.7159 157.384 72.5682 157.093C72.4233 156.801 72.2159 156.572 71.946 156.403C71.679 156.235 71.3636 156.15 71 156.15C70.5994 156.15 70.2528 156.25 69.9602 156.45C69.6705 156.647 69.4474 156.904 69.2912 157.221C69.1349 157.538 69.0568 157.878 69.0568 158.241V158.824C69.0568 159.321 69.142 159.742 69.3125 160.088C69.4858 160.431 69.7259 160.693 70.0327 160.873C70.3395 161.05 70.696 161.138 71.1023 161.138C71.3665 161.138 71.6051 161.101 71.8182 161.027C72.0341 160.949 72.2202 160.836 72.3764 160.684C72.5327 160.53 72.6534 160.338 72.7386 160.109L73.7102 160.384C73.608 160.715 73.4361 161.007 73.1946 161.258C72.9531 161.506 72.6548 161.701 72.2997 161.841C71.9446 161.978 71.5455 162.046 71.1023 162.046ZM75.3423 161.91V155.328H76.3139V156.321H76.3821C76.5014 155.995 76.7173 155.732 77.0298 155.529C77.3423 155.326 77.6946 155.224 78.0866 155.224C78.1605 155.224 78.2528 155.226 78.3636 155.229C78.4744 155.231 78.5582 155.236 78.6151 155.241V156.27C78.581 156.262 78.5028 156.249 78.3807 156.232C78.2614 156.212 78.1349 156.202 78.0014 156.202C77.6832 156.202 77.3991 156.269 77.1491 156.403C76.902 156.534 76.706 156.717 76.5611 156.952C76.419 157.183 76.348 157.447 76.348 157.744V161.91H75.3423ZM82.267 162.046C81.6761 162.046 81.1577 161.906 80.7116 161.622C80.2685 161.339 79.9219 160.944 79.6719 160.435C79.4247 159.926 79.3011 159.332 79.3011 158.652C79.3011 157.967 79.4247 157.368 79.6719 156.857C79.9219 156.345 80.2685 155.948 80.7116 155.666C81.1577 155.383 81.6761 155.241 82.267 155.241C82.858 155.241 83.375 155.383 83.8182 155.666C84.2642 155.948 84.6108 156.345 84.858 156.857C85.108 157.368 85.233 157.967 85.233 158.652C85.233 159.332 85.108 159.926 84.858 160.435C84.6108 160.944 84.2642 161.339 83.8182 161.622C83.375 161.906 82.858 162.046 82.267 162.046ZM82.267 161.138C82.7159 161.138 83.0852 161.023 83.375 160.791C83.6648 160.56 83.8793 160.255 84.0185 159.878C84.1577 159.501 84.2273 159.093 84.2273 158.652C84.2273 158.213 84.1577 157.803 84.0185 157.422C83.8793 157.043 83.6648 156.736 83.375 156.501C83.0852 156.267 82.7159 156.15 82.267 156.15C81.8182 156.15 81.4489 156.267 81.1591 156.501C80.8693 156.736 80.6548 157.043 80.5156 157.422C80.3764 157.803 80.3068 158.213 80.3068 158.652C80.3068 159.093 80.3764 159.501 80.5156 159.878C80.6548 160.255 80.8693 160.56 81.1591 160.791C81.4489 161.023 81.8182 161.138 82.267 161.138ZM92.6147 162.046C92.0692 162.046 91.5877 161.909 91.1701 161.631C90.7525 161.351 90.4258 160.957 90.19 160.448C89.9542 159.937 89.8363 159.333 89.8363 158.635C89.8363 157.944 89.9542 157.344 90.19 156.836C90.4258 156.327 90.7539 155.934 91.1744 155.657C91.5948 155.38 92.0806 155.241 92.6317 155.241C93.0579 155.241 93.3945 155.313 93.6417 155.455C93.8917 155.596 94.082 155.756 94.2127 155.936C94.3462 156.113 94.4499 156.259 94.5238 156.372H94.609V153.133H95.6147V161.91H94.6431V160.898H94.5238C94.4499 161.019 94.3448 161.169 94.2085 161.352C94.0721 161.532 93.8775 161.694 93.6246 161.837C93.3718 161.977 93.0352 162.046 92.6147 162.046ZM92.7511 161.138C93.1545 161.138 93.4954 161.033 93.7738 160.821C94.0522 160.607 94.2638 160.312 94.4087 159.935C94.5536 159.554 94.6261 159.116 94.6261 158.618C94.6261 158.127 94.555 157.697 94.413 157.329C94.271 156.957 94.0607 156.668 93.7823 156.463C93.5039 156.254 93.1602 156.15 92.7511 156.15C92.3249 156.15 91.9698 156.26 91.6857 156.48C91.4045 156.697 91.1928 156.993 91.0508 157.367C90.9116 157.738 90.842 158.156 90.842 158.618C90.842 159.087 90.913 159.512 91.055 159.895C91.1999 160.275 91.413 160.578 91.6942 160.804C91.9783 161.027 92.3306 161.138 92.7511 161.138ZM99.5224 162.063C99.1076 162.063 98.7312 161.985 98.3931 161.828C98.055 161.668 97.7866 161.438 97.5877 161.138C97.3888 160.836 97.2894 160.47 97.2894 160.041C97.2894 159.664 97.3633 159.358 97.511 159.124C97.6587 158.887 97.8562 158.702 98.1033 158.567C98.3505 158.433 98.6232 158.333 98.9215 158.267C99.2227 158.199 99.5252 158.144 99.8292 158.104C100.227 158.053 100.549 158.014 100.797 157.989C101.047 157.959 101.228 157.913 101.342 157.847C101.458 157.781 101.517 157.667 101.517 157.504V157.47C101.517 157.047 101.402 156.718 101.172 156.484C100.944 156.25 100.599 156.133 100.136 156.133C99.6559 156.133 99.2795 156.239 99.0067 156.45C98.734 156.661 98.5423 156.887 98.4315 157.127L97.4769 156.784C97.6474 156.385 97.8746 156.073 98.1587 155.85C98.4457 155.624 98.7582 155.467 99.0962 155.379C99.4371 155.287 99.7724 155.241 100.102 155.241C100.312 155.241 100.554 155.267 100.826 155.319C101.102 155.367 101.368 155.468 101.623 155.623C101.882 155.777 102.096 156.01 102.267 156.321C102.437 156.633 102.522 157.05 102.522 157.573V161.91H101.517V161.019H101.466C101.397 161.161 101.284 161.314 101.125 161.477C100.966 161.64 100.754 161.778 100.49 161.893C100.225 162.007 99.9031 162.063 99.5224 162.063ZM99.6758 161.155C100.074 161.155 100.409 161.077 100.681 160.92C100.957 160.762 101.164 160.56 101.304 160.312C101.446 160.062 101.517 159.801 101.517 159.527V158.601C101.474 158.652 101.38 158.7 101.235 158.743C101.093 158.783 100.929 158.818 100.741 158.849C100.556 158.879 100.376 158.904 100.2 158.927C100.027 158.947 99.886 158.964 99.7781 158.978C99.5167 159.012 99.2724 159.069 99.0451 159.145C98.8207 159.219 98.6388 159.332 98.4996 159.484C98.3633 159.633 98.2951 159.835 98.2951 160.092C98.2951 160.444 98.4244 160.71 98.6829 160.89C98.9442 161.067 99.2752 161.155 99.6758 161.155ZM112.369 156.801L111.466 157.058C111.409 156.907 111.325 156.76 111.214 156.617C111.107 156.471 110.959 156.351 110.771 156.257C110.584 156.163 110.344 156.116 110.051 156.116C109.651 156.116 109.317 156.209 109.05 156.395C108.786 156.577 108.653 156.81 108.653 157.093C108.653 157.344 108.744 157.543 108.926 157.689C109.108 157.834 109.392 157.955 109.778 158.053L110.75 158.292C111.335 158.435 111.771 158.654 112.058 158.948C112.345 159.24 112.489 159.616 112.489 160.075C112.489 160.452 112.381 160.789 112.165 161.087C111.952 161.384 111.653 161.618 111.27 161.79C110.886 161.961 110.44 162.046 109.932 162.046C109.264 162.046 108.712 161.901 108.274 161.61C107.837 161.318 107.56 160.893 107.443 160.333L108.398 160.092C108.489 160.446 108.661 160.713 108.913 160.89C109.169 161.067 109.503 161.155 109.915 161.155C110.384 161.155 110.756 161.056 111.031 160.856C111.31 160.653 111.449 160.41 111.449 160.127C111.449 159.898 111.369 159.707 111.21 159.552C111.051 159.395 110.807 159.279 110.477 159.201L109.386 158.944C108.787 158.801 108.347 158.58 108.065 158.28C107.787 157.977 107.648 157.598 107.648 157.144C107.648 156.773 107.751 156.444 107.959 156.158C108.169 155.873 108.455 155.648 108.815 155.486C109.179 155.323 109.591 155.241 110.051 155.241C110.699 155.241 111.207 155.384 111.577 155.67C111.949 155.956 112.213 156.333 112.369 156.801ZM116.662 162.046C116.071 162.046 115.552 161.906 115.106 161.622C114.663 161.339 114.316 160.944 114.066 160.435C113.819 159.926 113.696 159.332 113.696 158.652C113.696 157.967 113.819 157.368 114.066 156.857C114.316 156.345 114.663 155.948 115.106 155.666C115.552 155.383 116.071 155.241 116.662 155.241C117.252 155.241 117.77 155.383 118.213 155.666C118.659 155.948 119.005 156.345 119.252 156.857C119.502 157.368 119.627 157.967 119.627 158.652C119.627 159.332 119.502 159.926 119.252 160.435C119.005 160.944 118.659 161.339 118.213 161.622C117.77 161.906 117.252 162.046 116.662 162.046ZM116.662 161.138C117.11 161.138 117.48 161.023 117.77 160.791C118.059 160.56 118.274 160.255 118.413 159.878C118.552 159.501 118.622 159.093 118.622 158.652C118.622 158.213 118.552 157.803 118.413 157.422C118.274 157.043 118.059 156.736 117.77 156.501C117.48 156.267 117.11 156.15 116.662 156.15C116.213 156.15 115.843 156.267 115.554 156.501C115.264 156.736 115.049 157.043 114.91 157.422C114.771 157.803 114.701 158.213 114.701 158.652C114.701 159.093 114.771 159.501 114.91 159.878C115.049 160.255 115.264 160.56 115.554 160.791C115.843 161.023 116.213 161.138 116.662 161.138ZM121.163 161.91V155.328H122.134V156.321H122.202C122.322 155.995 122.538 155.732 122.85 155.529C123.163 155.326 123.515 155.224 123.907 155.224C123.981 155.224 124.073 155.226 124.184 155.229C124.295 155.231 124.379 155.236 124.435 155.241V156.27C124.401 156.262 124.323 156.249 124.201 156.232C124.082 156.212 123.955 156.202 123.822 156.202C123.504 156.202 123.219 156.269 122.969 156.403C122.722 156.534 122.526 156.717 122.381 156.952C122.239 157.183 122.168 157.447 122.168 157.744V161.91H121.163ZM128.884 155.328V156.184H125.492V155.328H128.884ZM126.481 153.75H127.487V160.024C127.487 160.31 127.528 160.524 127.61 160.667C127.695 160.806 127.803 160.901 127.934 160.949C128.067 160.995 128.208 161.019 128.356 161.019C128.467 161.019 128.558 161.013 128.629 161.002C128.7 160.986 128.756 160.975 128.799 160.966L129.004 161.875C128.935 161.901 128.84 161.927 128.718 161.953C128.596 161.981 128.441 161.995 128.254 161.995C127.969 161.995 127.691 161.934 127.418 161.811C127.148 161.688 126.924 161.501 126.745 161.25C126.569 160.998 126.481 160.681 126.481 160.299V153.75ZM133.071 162.046C132.44 162.046 131.896 161.907 131.439 161.627C130.984 161.344 130.634 160.949 130.386 160.444C130.142 159.936 130.02 159.344 130.02 158.669C130.02 157.996 130.142 157.401 130.386 156.887C130.634 156.369 130.977 155.967 131.418 155.679C131.861 155.387 132.378 155.241 132.969 155.241C133.31 155.241 133.646 155.298 133.979 155.413C134.311 155.527 134.614 155.713 134.886 155.97C135.159 156.225 135.376 156.562 135.538 156.981C135.7 157.401 135.781 157.918 135.781 158.533V158.961H130.736V158.087H134.759C134.759 157.716 134.685 157.384 134.537 157.093C134.392 156.801 134.185 156.572 133.915 156.403C133.648 156.235 133.332 156.15 132.969 156.15C132.568 156.15 132.222 156.25 131.929 156.45C131.639 156.647 131.416 156.904 131.26 157.221C131.104 157.538 131.026 157.878 131.026 158.241V158.824C131.026 159.321 131.111 159.742 131.281 160.088C131.455 160.431 131.695 160.693 132.001 160.873C132.308 161.05 132.665 161.138 133.071 161.138C133.335 161.138 133.574 161.101 133.787 161.027C134.003 160.949 134.189 160.836 134.345 160.684C134.501 160.53 134.622 160.338 134.707 160.109L135.679 160.384C135.577 160.715 135.405 161.007 135.163 161.258C134.922 161.506 134.624 161.701 134.268 161.841C133.913 161.978 133.514 162.046 133.071 162.046Z" fill="white"/>
<path fill-rule="evenodd" clip-rule="evenodd" d="M111.777 52.3298C100.257 50.0905 91.4574 47.9585 89.5241 47.4758L89.5108 47.3284L89.4974 47.2882C91.5241 46.8591 101.471 44.9551 112.257 45.9472C131.724 47.744 129.471 21.3558 113.964 25.9415C119.604 11.0713 97.7908 5.10448 94.0441 24.5872C91.8041 36.2528 89.6574 45.1293 89.2041 46.9932C89.1641 46.9797 89.1241 46.9797 89.0841 46.9797L89.0308 46.9932C88.6174 44.9684 86.7108 34.9656 87.6974 24.1046C89.4841 4.52793 63.2441 6.79395 67.8041 22.3882C53.0041 16.7163 47.0841 38.6395 66.4574 42.4074C78.0441 44.6734 86.8708 46.8188 88.7374 47.2747C88.7241 47.3149 88.7108 47.3686 88.7241 47.4088V47.4624C86.6708 47.8916 76.7374 49.7956 65.9641 48.8033C46.5108 47.0066 48.7508 73.3947 64.2574 68.809C58.6174 83.6792 80.4308 89.6327 84.1774 70.1499C86.1641 59.8923 88.0574 51.78 88.7908 48.7095C89.0974 54.7567 88.4841 60.8175 87.2441 66.7172C85.9241 73.0596 83.9374 79.2544 81.8574 85.4224C79.6841 91.5501 77.6841 97.9729 76.8574 104.597C75.9641 111.221 76.1108 118.045 77.4041 124.669V124.682L77.4174 124.75C77.6574 125.783 78.6841 126.426 79.7108 126.185C80.7508 125.93 81.3908 124.898 81.1508 123.865C79.7108 117.697 79.3108 111.301 79.9241 104.959C80.2174 101.781 80.7508 98.6165 81.4841 95.4923C82.2041 92.3547 83.1508 89.284 84.0841 86.133C85.9374 79.8577 87.6974 73.5155 88.7774 67.0123C89.6574 61.8098 90.0574 56.5133 89.8174 51.2437C90.4574 55.5345 91.2308 62.869 90.5241 70.646C88.7374 90.2092 114.991 87.9566 110.431 72.3623C125.217 78.0342 131.151 56.0977 111.777 52.3298Z" fill="white"/>
</svg>
